<svg width="34" height="34" viewBox="0 0 34 34" fill="none" xmlns="http://www.w3.org/2000/svg">
<path d="M16.6667 0C7.46667 0 0 7.46667 0 16.6667C0 25.8667 7.46667 33.3333 16.6667 33.3333C25.8667 33.3333 33.3333 25.8667 33.3333 16.6667C33.3333 7.46667 25.8667 0 16.6667 0ZM8.45 27.1333C9.16667 25.6333 13.5333 24.1667 16.6667 24.1667C19.8 24.1667 24.1833 25.6333 24.8833 27.1333C22.6167 28.9333 19.7667 30 16.6667 30C13.5667 30 10.7167 28.9333 8.45 27.1333ZM27.2667 24.7167C24.8833 21.8167 19.1 20.8333 16.6667 20.8333C14.2333 20.8333 8.45 21.8167 6.06667 24.7167C4.36667 22.4833 3.33333 19.7 3.33333 16.6667C3.33333 9.31667 9.31667 3.33333 16.6667 3.33333C24.0167 3.33333 30 9.31667 30 16.6667C30 19.7 28.9667 22.4833 27.2667 24.7167V24.7167ZM16.6667 6.66667C13.4333 6.66667 10.8333 9.26667 10.8333 12.5C10.8333 15.7333 13.4333 18.3333 16.6667 18.3333C19.9 18.3333 22.5 15.7333 22.5 12.5C22.5 9.26667 19.9 6.66667 16.6667 6.66667ZM16.6667 15C15.2833 15 14.1667 13.8833 14.1667 12.5C14.1667 11.1167 15.2833 10 16.6667 10C18.05 10 19.1667 11.1167 19.1667 12.5C19.1667 13.8833 18.05 15 16.6667 15Z" fill="black"/>
</svg>
