<svg width="11" height="12" viewBox="0 0 11 12" fill="none" xmlns="http://www.w3.org/2000/svg">
<path d="M10 10H0.666667C0.298477 10 0 10.2985 0 10.6667C0 11.0349 0.298477 11.3333 0.666667 11.3333H10C10.3682 11.3333 10.6667 11.0349 10.6667 10.6667C10.6667 10.2985 10.3682 10 10 10Z" fill="#1E4076"/>
<path d="M0 9.33331L0 10.6666C0 11.0348 0.298477 11.3333 0.666667 11.3333C1.03486 11.3333 1.33333 11.0348 1.33333 10.6666L1.33333 9.33331C1.33333 8.96512 1.03486 8.66665 0.666667 8.66665C0.298477 8.66665 0 8.96512 0 9.33331Z" fill="#1E4076"/>
<path d="M9.33398 9.33331L9.33398 10.6666C9.33398 11.0348 9.63246 11.3333 10.0007 11.3333C10.3688 11.3333 10.6673 11.0348 10.6673 10.6666L10.6673 9.33331C10.6673 8.96512 10.3688 8.66665 10.0007 8.66665C9.63246 8.66665 9.33398 8.96512 9.33398 9.33331Z" fill="#1E4076"/>
<path d="M5.33428 8.00002C5.19607 8.00107 5.06094 7.95914 4.94761 7.88002L2.28094 6.00002C2.13722 5.89807 2.03971 5.74335 2.00972 5.56971C1.97974 5.39606 2.01973 5.2176 2.12094 5.07336C2.17147 5.00125 2.23577 4.93987 2.31015 4.89276C2.38452 4.84565 2.46749 4.81373 2.55427 4.79885C2.64104 4.78398 2.72991 4.78644 2.81573 4.80609C2.90155 4.82574 2.98262 4.8622 3.05428 4.91336L5.33428 6.50669L7.60094 4.80002C7.74239 4.69394 7.92019 4.64839 8.09523 4.67339C8.27026 4.69839 8.42819 4.79191 8.53428 4.93336C8.64036 5.0748 8.68592 5.2526 8.66091 5.42764C8.63591 5.60267 8.54239 5.7606 8.40094 5.86669L5.73428 7.86669C5.61888 7.95324 5.47852 8.00002 5.33428 8.00002V8.00002Z" fill="#1E4076"/>
<path d="M5.33268 6.66661C5.15587 6.66661 4.9863 6.59637 4.86128 6.47134C4.73625 6.34632 4.66602 6.17675 4.66602 5.99994L4.66602 0.666606C4.66602 0.489795 4.73625 0.320225 4.86128 0.195201C4.9863 0.0701768 5.15587 -6.10352e-05 5.33268 -6.10352e-05C5.50949 -6.10352e-05 5.67906 0.0701768 5.80409 0.195201C5.92911 0.320225 5.99935 0.489795 5.99935 0.666606L5.99935 5.99994C5.99935 6.17675 5.92911 6.34632 5.80409 6.47134C5.67906 6.59637 5.50949 6.66661 5.33268 6.66661Z" fill="#1E4076"/>
</svg>
