<svg width="25" height="24" viewBox="0 0 25 24" fill="none" xmlns="http://www.w3.org/2000/svg">
<path d="M12.5003 0.75C10.3816 0.751693 8.30642 1.35165 6.51367 2.4808H18.4706C16.6825 1.35461 14.6134 0.754774 12.5003 0.75V0.75Z" fill="#B22234"/>
<path d="M6.51416 2.48047C5.74188 2.96936 5.03206 3.55055 4.40039 4.21118H20.6145C19.9736 3.54864 19.2537 2.96738 18.471 2.48047H6.51416Z" fill="#FCFCFC"/>
<path d="M4.4003 4.21191C3.88969 4.74277 3.43245 5.32249 3.03516 5.94272H21.9792C21.582 5.3225 21.1249 4.74278 20.6144 4.21191H4.4003Z" fill="#B22234"/>
<path d="M3.03522 5.94238C2.68013 6.49156 2.37361 7.07066 2.11914 7.6731H22.8741C22.6264 7.0714 22.327 6.49232 21.9792 5.94238H3.03522Z" fill="#FCFCFC"/>
<path d="M2.11838 7.6731C1.88803 8.23421 1.70344 8.81303 1.56641 9.4039H23.4328C23.2933 8.81281 23.1063 8.23399 22.8734 7.6731H2.11838Z" fill="#B22234"/>
<path d="M1.56607 9.4043C1.43018 9.97325 1.33887 10.5519 1.29297 11.1351H23.713C23.6647 10.5517 23.5709 9.97305 23.4324 9.4043H1.56607Z" fill="#FCFCFC"/>
<path d="M1.2933 11.1346C1.26776 11.4224 1.25332 11.7111 1.25 12C1.25109 12.2888 1.26331 12.5775 1.28662 12.8654H23.7067C23.7322 12.5776 23.7467 12.2889 23.75 12C23.7489 11.7112 23.7367 11.4225 23.7134 11.1346H1.2933Z" fill="#B22234"/>
<path d="M1.28711 12.8654C1.33547 13.4487 1.4293 14.0274 1.56772 14.5962H23.4341C23.57 14.0272 23.6613 13.4485 23.7072 12.8654H1.28711Z" fill="#FCFCFC"/>
<path d="M1.56641 14.5957C1.70585 15.1868 1.89292 15.7656 2.12579 16.3265H22.8808C23.1111 15.7654 23.2957 15.1866 23.4328 14.5957H1.56641Z" fill="#B22234"/>
<path d="M2.12695 16.3269C2.37465 16.9286 2.67408 17.5077 3.02188 18.0576H21.9659C22.321 17.5084 22.6275 16.9293 22.882 16.3269H2.12695Z" fill="#FCFCFC"/>
<path d="M3.02148 18.0576C3.41866 18.6778 3.87578 19.2576 4.38626 19.7884H20.6003C21.111 19.2576 21.5682 18.6779 21.9655 18.0576H3.02148Z" fill="#B22234"/>
<path d="M4.38672 19.7881C5.02759 20.4506 5.74747 21.0319 6.53015 21.5188H18.487C19.2593 21.0299 19.9691 20.4487 20.6008 19.7881H4.38672Z" fill="#FCFCFC"/>
<path d="M6.5293 21.5195C8.31733 22.6457 10.3864 23.2456 12.4995 23.2503C14.6183 23.2486 16.6934 22.6487 18.4862 21.5195H6.5293Z" fill="#B22234"/>
<path d="M12.5 0.75C9.51631 0.75 6.65483 1.93526 4.54505 4.04505C2.43526 6.15483 1.25 9.01631 1.25 12C1.25147 12.2973 1.26473 12.5944 1.28973 12.8906H13.3906V0.794586C13.0945 0.767959 12.7973 0.753086 12.5 0.75V0.75Z" fill="#3C3B6E"/>
<path d="M8.47396 1.50859C8.32406 1.56331 8.17534 1.62121 8.02791 1.68226L8.19225 1.80714L8.0811 2.1663L8.37554 1.94648L8.67858 2.17683L8.56478 1.80513L8.86782 1.5789H8.49547L8.47396 1.50859ZM10.3822 1.20129L10.2654 1.57887H9.89431L10.1947 1.80717L10.0835 2.16628L10.3779 1.94647L10.681 2.17681L10.5672 1.80517L10.8702 1.57887H10.4979L10.3822 1.20129V1.20129ZM12.3846 1.20129L12.2677 1.57887H11.8967L12.197 1.80717L12.0859 2.16628L12.3803 1.94647L12.6834 2.17681L12.5695 1.80517L12.8726 1.57887H12.5003L12.3846 1.20129ZM5.57943 3.14738C5.52652 3.18684 5.47397 3.22675 5.42177 3.26713L5.67501 3.45967L5.57943 3.14738ZM7.37867 2.48412L7.26178 2.8617H6.89073L7.19108 3.08999L7.07991 3.44911L7.37433 3.2293L7.6774 3.45964L7.56359 3.088L7.86661 2.8617H7.4943L7.37867 2.48412ZM9.38106 2.48412L9.26417 2.8617H8.89311L9.19347 3.08999L9.0823 3.44911L9.37672 3.2293L9.67978 3.45964L9.56597 3.088L9.869 2.8617H9.49669L9.38106 2.48412V2.48412ZM11.3834 2.48412L11.2666 2.8617H10.8955L11.1959 3.08999L11.0847 3.44911L11.3791 3.2293L11.6822 3.45964L11.5684 3.088L11.8714 2.8617H11.4991L11.3834 2.48412V2.48412ZM4.48143 4.11427C4.37047 4.23173 4.26204 4.35157 4.15624 4.47371L4.07631 4.73188L4.37075 4.51207L4.67379 4.74241L4.55999 4.3708L4.86302 4.14448H4.49068L4.48143 4.11427ZM6.37748 3.7669L6.26059 4.14448H5.88954L6.18989 4.37277L6.07872 4.73189L6.37313 4.51208L6.6762 4.74242L6.56239 4.37078L6.86542 4.14448H6.49311L6.37748 3.7669V3.7669ZM8.37986 3.7669L8.26297 4.14448H7.89192L8.19227 4.37277L8.0811 4.73189L8.37552 4.51208L8.67858 4.74242L8.56478 4.37078L8.86781 4.14448H8.49549L8.37986 3.7669V3.7669ZM10.3822 3.7669L10.2654 4.14448H9.89431L10.1947 4.37277L10.0835 4.73189L10.3779 4.51208L10.681 4.74242L10.5672 4.37078L10.8702 4.14448H10.4979L10.3822 3.7669V3.7669ZM12.3846 3.7669L12.2677 4.14448H11.8967L12.197 4.37277L12.0859 4.73189L12.3803 4.51208L12.6834 4.74242L12.5695 4.37078L12.8726 4.14448H12.5003L12.3846 3.7669V3.7669ZM3.45888 5.32716C3.35523 5.4653 3.25477 5.60581 3.15758 5.74858L3.07518 6.01472L3.36952 5.7949L3.67266 6.02525L3.55886 5.65364L3.8618 5.42732H3.48955L3.45888 5.32716ZM5.37629 5.04973L5.25939 5.42731H4.88834L5.1887 5.6556L5.07752 6.01472L5.37194 5.79491L5.67501 6.02525L5.5612 5.65361L5.86423 5.42731H5.49191L5.37629 5.04973V5.04973ZM7.37867 5.04973L7.26178 5.42731H6.89073L7.19108 5.6556L7.07991 6.01472L7.37433 5.79491L7.6774 6.02525L7.56359 5.65361L7.86661 5.42731H7.4943L7.37867 5.04973V5.04973ZM9.38106 5.04973L9.26417 5.42731H8.89311L9.19347 5.6556L9.0823 6.01472L9.37672 5.79491L9.67978 6.02525L9.56597 5.65361L9.869 5.42731H9.49669L9.38106 5.04973V5.04973ZM11.3834 5.04973L11.2666 5.42731H10.8955L11.1959 5.6556L11.0847 6.01472L11.3791 5.79491L11.6822 6.02525L11.5684 5.65361L11.8714 5.42731H11.4991L11.3834 5.04973V5.04973ZM2.58144 6.71016C2.5142 6.83617 2.44937 6.96345 2.38698 7.09193L2.67144 7.30809L2.55764 6.93647L2.86067 6.71016H2.58144ZM4.3751 6.33256L4.25821 6.71014H3.88715L4.18751 6.93843L4.07634 7.29755L4.37075 7.07774L4.67382 7.30808L4.56001 6.93644L4.86304 6.71014H4.49072L4.3751 6.33256ZM6.37748 6.33256L6.26059 6.71014H5.88954L6.18989 6.93843L6.07872 7.29755L6.37313 7.07774L6.6762 7.30808L6.56239 6.93644L6.86542 6.71014H6.49311L6.37748 6.33256V6.33256ZM8.37986 6.33256L8.26297 6.71014H7.89192L8.19227 6.93843L8.0811 7.29755L8.37552 7.07774L8.67858 7.30808L8.56478 6.93644L8.86781 6.71014H8.49549L8.37986 6.33256ZM10.3822 6.33256L10.2654 6.71014H9.89431L10.1947 6.93843L10.0835 7.29755L10.3779 7.07774L10.681 7.30808L10.5672 6.93644L10.8702 6.71014H10.4979L10.3822 6.33256V6.33256ZM12.3846 6.33256L12.2677 6.71014H11.8967L12.197 6.93843L12.0859 7.29755L12.3803 7.07774L12.6834 7.30808L12.5695 6.93644L12.8726 6.71014H12.5003L12.3846 6.33256ZM3.3739 7.61534L3.25701 7.99291H2.88596L3.18632 8.22121L3.07515 8.58032L3.36956 8.36052L3.67262 8.59086L3.55882 8.21921L3.86185 7.99291H3.48953L3.3739 7.61534V7.61534ZM5.37629 7.61534L5.25939 7.99291H4.88834L5.1887 8.22121L5.07752 8.58032L5.37194 8.36052L5.67501 8.59086L5.5612 8.21921L5.86423 7.99291H5.49191L5.37629 7.61534ZM7.37867 7.61534L7.26178 7.99291H6.89073L7.19108 8.22121L7.07991 8.58032L7.37433 8.36052L7.6774 8.59086L7.56359 8.21921L7.86661 7.99291H7.4943L7.37867 7.61534ZM9.38106 7.61534L9.26417 7.99291H8.89311L9.19347 8.22121L9.0823 8.58032L9.37672 8.36052L9.67978 8.59086L9.56597 8.21921L9.869 7.99291H9.49669L9.38106 7.61534V7.61534ZM11.3834 7.61534L11.2666 7.99291H10.8955L11.1959 8.22121L11.0847 8.58032L11.3791 8.36052L11.6822 8.59086L11.5684 8.21921L11.8714 7.99291H11.4991L11.3834 7.61534V7.61534ZM2.37271 8.89817L2.25582 9.27574H1.88477L2.18512 9.50404L2.07395 9.86315L2.36837 9.64335L2.67143 9.87369L2.55763 9.50204L2.86065 9.27574H2.48834L2.37271 8.89817ZM4.3751 8.89817L4.25821 9.27574H3.88715L4.18751 9.50404L4.07634 9.86315L4.37075 9.64335L4.67382 9.87369L4.56001 9.50204L4.86304 9.27574H4.49072L4.3751 8.89817ZM6.37748 8.89817L6.26059 9.27574H5.88954L6.18989 9.50404L6.07872 9.86315L6.37313 9.64335L6.6762 9.87369L6.56239 9.50204L6.86542 9.27574H6.49311L6.37748 8.89817V8.89817ZM8.37986 8.89817L8.26297 9.27574H7.89192L8.19227 9.50404L8.0811 9.86315L8.37552 9.64335L8.67858 9.87369L8.56478 9.50204L8.86781 9.27574H8.49549L8.37986 8.89817ZM10.3822 8.89817L10.2654 9.27574H9.89431L10.1947 9.50404L10.0835 9.86315L10.3779 9.64335L10.681 9.87369L10.5672 9.50204L10.8702 9.27574H10.4979L10.3822 8.89817V8.89817ZM12.3846 8.89817L12.2677 9.27574H11.8967L12.197 9.50404L12.0859 9.86315L12.3803 9.64335L12.6834 9.87369L12.5695 9.50204L12.8726 9.27574H12.5003L12.3846 8.89817ZM3.3739 10.181L3.25701 10.5586H2.88596L3.18632 10.7869L3.07515 11.146L3.36956 10.9262L3.67262 11.1565L3.55882 10.7849L3.86185 10.5586H3.48953L3.3739 10.181V10.181ZM5.37629 10.181L5.25939 10.5586H4.88834L5.1887 10.7869L5.07752 11.146L5.37194 10.9262L5.67501 11.1565L5.5612 10.7849L5.86423 10.5586H5.49191L5.37629 10.181ZM7.37867 10.181L7.26178 10.5586H6.89073L7.19108 10.7869L7.07991 11.146L7.37433 10.9262L7.6774 11.1565L7.56359 10.7849L7.86661 10.5586H7.4943L7.37867 10.181ZM9.38106 10.181L9.26417 10.5586H8.89311L9.19347 10.7869L9.0823 11.146L9.37672 10.9262L9.67978 11.1565L9.56597 10.7849L9.869 10.5586H9.49669L9.38106 10.181V10.181ZM11.3834 10.181L11.2666 10.5586H10.8955L11.1959 10.7869L11.0847 11.146L11.3791 10.9262L11.6822 11.1565L11.5684 10.7849L11.8714 10.5586H11.4991L11.3834 10.181V10.181ZM2.37271 11.4638L2.25582 11.8413H1.88477L2.18512 12.0696L2.07395 12.4288L2.36837 12.209L2.67143 12.4393L2.55763 12.0677L2.86065 11.8413H2.48834L2.37271 11.4638V11.4638ZM4.3751 11.4638L4.25821 11.8413H3.88715L4.18751 12.0696L4.07634 12.4288L4.37075 12.209L4.67382 12.4393L4.56001 12.0677L4.86304 11.8413H4.49072L4.3751 11.4638V11.4638ZM6.37748 11.4638L6.26059 11.8413H5.88954L6.18989 12.0696L6.07872 12.4288L6.37313 12.209L6.6762 12.4393L6.56239 12.0677L6.86542 11.8413H6.49311L6.37748 11.4638V11.4638ZM8.37986 11.4638L8.26297 11.8413H7.89192L8.19227 12.0696L8.0811 12.4288L8.37552 12.209L8.67858 12.4393L8.56478 12.0677L8.86781 11.8413H8.49549L8.37986 11.4638V11.4638ZM10.3822 11.4638L10.2654 11.8413H9.89431L10.1947 12.0696L10.0835 12.4288L10.3779 12.209L10.681 12.4393L10.5672 12.0677L10.8702 11.8413H10.4979L10.3822 11.4638V11.4638ZM12.3846 11.4638L12.2677 11.8413H11.8967L12.197 12.0696L12.0859 12.4288L12.3803 12.209L12.6834 12.4393L12.5695 12.0677L12.8726 11.8413H12.5003L12.3846 11.4638V11.4638Z" fill="#FCFCFC"/>
</svg>
