<svg width="18" height="18" viewBox="0 0 18 18" fill="none" xmlns="http://www.w3.org/2000/svg">
<path d="M8.87591 8.43294C9.36613 8.43294 9.76353 8.0383 9.76353 7.55149C9.76353 7.06468 9.36613 6.67004 8.87591 6.67004C8.38568 6.67004 7.98828 7.06468 7.98828 7.55149C7.98828 8.0383 8.38568 8.43294 8.87591 8.43294Z" fill="#1E4076"/>
<path d="M12.4267 8.43294C12.9169 8.43294 13.3143 8.0383 13.3143 7.55149C13.3143 7.06468 12.9169 6.67004 12.4267 6.67004C11.9365 6.67004 11.5391 7.06468 11.5391 7.55149C11.5391 8.0383 11.9365 8.43294 12.4267 8.43294Z" fill="#1E4076"/>
<path d="M5.32512 8.43294C5.81535 8.43294 6.21275 8.0383 6.21275 7.55149C6.21275 7.06468 5.81535 6.67004 5.32512 6.67004C4.8349 6.67004 4.4375 7.06468 4.4375 7.55149C4.4375 8.0383 4.8349 8.43294 5.32512 8.43294Z" fill="#1E4076"/>
<path d="M15.0896 0.499756H2.66288C1.95664 0.499756 1.27932 0.778355 0.779938 1.27427C0.280552 1.77018 0 2.44277 0 3.1441L0 16.3658C0.000271042 16.522 0.0423298 16.6753 0.121871 16.8101C0.201413 16.9448 0.315581 17.0561 0.452689 17.1327C0.585349 17.2073 0.735141 17.2468 0.887625 17.2473C1.04694 17.2472 1.2033 17.2046 1.34031 17.1239L5.32575 14.7263C5.47307 14.6392 5.64263 14.5964 5.81394 14.6029H15.0896C15.7959 14.6029 16.4732 14.3243 16.9726 13.8284C17.4719 13.3325 17.7525 12.6599 17.7525 11.9586L17.7525 3.1441C17.7525 2.44277 17.4719 1.77018 16.9726 1.27427C16.4732 0.778355 15.7959 0.499756 15.0896 0.499756ZM15.9773 11.9586C15.9773 12.1923 15.8837 12.4165 15.7173 12.5818C15.5508 12.7472 15.325 12.84 15.0896 12.84H5.81394C5.32914 12.8396 4.85344 12.9707 4.43813 13.219L1.77525 14.8056L1.77525 3.1441C1.77525 2.91032 1.86877 2.68612 2.03523 2.52082C2.20169 2.35552 2.42746 2.26265 2.66288 2.26265H15.0896C15.325 2.26265 15.5508 2.35552 15.7173 2.52082C15.8837 2.68612 15.9773 2.91032 15.9773 3.1441L15.9773 11.9586Z" fill="#1E4076"/>
</svg>
