<svg width="18" height="33" viewBox="0 0 18 33" fill="none" xmlns="http://www.w3.org/2000/svg">
<path d="M14 1.7959H4C2.34315 1.7959 1 3.13904 1 4.7959V28.7959C1 30.4528 2.34315 31.7959 4 31.7959H14C15.6569 31.7959 17 30.4528 17 28.7959V4.7959C17 3.13904 15.6569 1.7959 14 1.7959Z" stroke="#1E4076" stroke-width="2" stroke-linecap="round" stroke-linejoin="round"/>
<path d="M4 1.7959H5.5C5.63261 1.7959 5.75979 1.84858 5.85355 1.94235C5.94732 2.03611 6 2.16329 6 2.2959C6 2.56111 6.10536 2.81547 6.29289 3.00301C6.48043 3.19054 6.73478 3.2959 7 3.2959H11C11.2652 3.2959 11.5196 3.19054 11.7071 3.00301C11.8946 2.81547 12 2.56111 12 2.2959C12 2.16329 12.0527 2.03611 12.1464 1.94235C12.2402 1.84858 12.3674 1.7959 12.5 1.7959H14" stroke="#1E4076" stroke-width="2" stroke-linecap="round" stroke-linejoin="round"/>
</svg>
