<svg width="22" height="28" viewBox="0 0 22 28" fill="none" xmlns="http://www.w3.org/2000/svg">
<path d="M21.3207 9.10699L14.0673 1.10699C13.9427 0.968865 13.7905 0.858361 13.6205 0.782582C13.4506 0.706803 13.2667 0.667428 13.0807 0.666988H3.74732C3.30432 0.661704 2.86461 0.743735 2.45332 0.908396C2.04202 1.07306 1.66719 1.31713 1.35023 1.62666C1.03326 1.93619 0.780377 2.30513 0.606009 2.71241C0.431641 3.11969 0.339206 3.55732 0.333984 4.00032V24.0003C0.339206 24.4433 0.431641 24.881 0.606009 25.2882C0.780377 25.6955 1.03326 26.0644 1.35023 26.374C1.66719 26.6835 2.04202 26.9276 2.45332 27.0922C2.86461 27.2569 3.30432 27.3389 3.74732 27.3337H18.254C18.697 27.3389 19.1367 27.2569 19.548 27.0922C19.9593 26.9276 20.3341 26.6835 20.6511 26.374C20.968 26.0644 21.2209 25.6955 21.3953 25.2882C21.5697 24.881 21.6621 24.4433 21.6673 24.0003V10.0003C21.6665 9.66987 21.5429 9.35152 21.3207 9.10699V9.10699ZM13.6673 4.66699L17.3207 8.66699H14.654C14.5144 8.65856 14.3778 8.6224 14.2523 8.56063C14.1268 8.49886 14.0149 8.41271 13.923 8.30721C13.8312 8.20171 13.7613 8.07897 13.7173 7.94615C13.6734 7.81334 13.6564 7.67311 13.6673 7.53365V4.66699ZM18.254 24.667H3.74732C3.65448 24.6724 3.5615 24.6594 3.47368 24.6288C3.38587 24.5982 3.30497 24.5506 3.2356 24.4886C3.16623 24.4267 3.10977 24.3517 3.06946 24.2679C3.02914 24.1841 3.00576 24.0932 3.00065 24.0003V4.00032C3.00576 3.90747 3.02914 3.81654 3.06946 3.73274C3.10977 3.64895 3.16623 3.57393 3.2356 3.512C3.30497 3.45006 3.38587 3.40243 3.47368 3.37183C3.5615 3.34122 3.65448 3.32825 3.74732 3.33365H11.0007V7.53365C10.9791 8.51582 11.347 9.46662 12.0239 10.1785C12.7009 10.8905 13.632 11.3057 14.614 11.3337H19.0007V24.0003C18.9955 24.0932 18.9722 24.1841 18.9318 24.2679C18.8915 24.3517 18.8351 24.4267 18.7657 24.4886C18.6963 24.5506 18.6154 24.5982 18.5276 24.6288C18.4398 24.6594 18.3468 24.6724 18.254 24.667Z" fill="#1E4076"/>
</svg>
