<svg width="16" height="16" viewBox="0 0 16 16" fill="none" xmlns="http://www.w3.org/2000/svg">
<g clip-path="url(#clip0_1391_125496)">
<path d="M13.2747 2.8405L11.9899 1.51356C11.8322 1.35154 11.6436 1.22266 11.4354 1.13447C11.2271 1.04628 11.0033 1.00057 10.7772 1H8.125C7.47689 1.00082 6.84887 1.22505 6.3468 1.6349C5.84473 2.04476 5.4993 2.61517 5.36875 3.25H5.3125C4.56685 3.25089 3.852 3.5475 3.32475 4.07475C2.7975 4.602 2.50089 5.31685 2.5 6.0625L2.5 11.6875C2.50089 12.4331 2.7975 13.148 3.32475 13.6753C3.852 14.2025 4.56685 14.4991 5.3125 14.5H8.6875C9.43315 14.4991 10.148 14.2025 10.6753 13.6753C11.2025 13.148 11.4991 12.4331 11.5 11.6875V11.6312C12.1348 11.5007 12.7052 11.1553 13.1151 10.6532C13.525 10.1511 13.7492 9.52312 13.75 8.875L13.75 4.015C13.7508 3.57648 13.5803 3.155 13.2747 2.8405ZM8.6875 13.375H5.3125C4.86495 13.375 4.43573 13.1972 4.11926 12.8807C3.80279 12.5643 3.625 12.1351 3.625 11.6875L3.625 6.0625C3.625 5.61495 3.80279 5.18573 4.11926 4.86926C4.43573 4.55279 4.86495 4.375 5.3125 4.375L5.3125 8.875C5.31339 9.62065 5.61 10.3355 6.13725 10.8628C6.6645 11.39 7.37935 11.6866 8.125 11.6875H10.375C10.375 12.1351 10.1972 12.5643 9.88074 12.8807C9.56428 13.1972 9.13505 13.375 8.6875 13.375ZM10.9375 10.5625H8.125C7.67745 10.5625 7.24823 10.3847 6.93176 10.0682C6.61529 9.75178 6.4375 9.32255 6.4375 8.875L6.4375 3.8125C6.4375 3.36495 6.61529 2.93572 6.93176 2.61926C7.24823 2.30279 7.67745 2.125 8.125 2.125H10.375L10.375 3.25C10.375 3.54837 10.4935 3.83452 10.7045 4.0455C10.9155 4.25647 11.2016 4.375 11.5 4.375H12.625L12.625 8.875C12.625 9.32255 12.4472 9.75178 12.1307 10.0682C11.8143 10.3847 11.3851 10.5625 10.9375 10.5625Z" fill="white"/>
</g>
<defs>
<clipPath id="clip0_1391_125496">
<rect width="16" height="16" fill="white"/>
</clipPath>
</defs>
</svg>
