<svg width="24" height="24" viewBox="0 0 24 24" fill="none" xmlns="http://www.w3.org/2000/svg">
<g clip-path="url(#clip0_748_57981)">
<path d="M19.912 4.26075L17.9849 2.27034C17.7482 2.02731 17.4654 1.83399 17.153 1.70171C16.8407 1.56943 16.505 1.50085 16.1658 1.5H12.1875C11.2153 1.50123 10.2733 1.83758 9.5202 2.45236C8.76709 3.06714 8.24896 3.92275 8.05313 4.875H7.96875C6.85028 4.87634 5.778 5.32124 4.98712 6.11212C4.19624 6.903 3.75134 7.97528 3.75 9.09375V17.5312C3.75134 18.6497 4.19624 19.722 4.98712 20.5129C5.778 21.3038 6.85028 21.7487 7.96875 21.75H13.0313C14.1497 21.7487 15.222 21.3038 16.0129 20.5129C16.8038 19.722 17.2487 18.6497 17.25 17.5312V17.4469C18.2022 17.251 19.0579 16.7329 19.6726 15.9798C20.2874 15.2267 20.6238 14.2847 20.625 13.3125V6.0225C20.6263 5.36473 20.3704 4.73251 19.912 4.26075V4.26075ZM13.0313 20.0625H7.96875C7.29742 20.0625 6.65359 19.7958 6.17889 19.3211C5.70418 18.8464 5.4375 18.2026 5.4375 17.5312V9.09375C5.4375 8.42242 5.70418 7.77859 6.17889 7.30389C6.65359 6.82918 7.29742 6.5625 7.96875 6.5625V13.3125C7.97009 14.431 8.41499 15.5032 9.20587 16.2941C9.99675 17.085 11.069 17.5299 12.1875 17.5312H15.5625C15.5625 18.2026 15.2958 18.8464 14.8211 19.3211C14.3464 19.7958 13.7026 20.0625 13.0313 20.0625ZM16.4063 15.8438H12.1875C11.5162 15.8437 10.8723 15.5771 10.3976 15.1024C9.92294 14.6277 9.65625 13.9838 9.65625 13.3125V5.71875C9.65625 5.04742 9.92294 4.40359 10.3976 3.92889C10.8723 3.45418 11.5162 3.1875 12.1875 3.1875H15.5625V4.875C15.5625 5.32255 15.7403 5.75178 16.0568 6.06824C16.3732 6.38471 16.8024 6.5625 17.25 6.5625H18.9375V13.3125C18.9375 13.9838 18.6708 14.6277 18.1961 15.1024C17.7214 15.5771 17.0776 15.8438 16.4063 15.8438V15.8438Z" fill="#1E4076"/>
</g>
<defs>
<clipPath id="clip0_748_57981">
<rect width="24" height="24" fill="white"/>
</clipPath>
</defs>
</svg>
