<svg width="21" height="15" viewBox="0 0 21 15" fill="none" xmlns="http://www.w3.org/2000/svg">
<path d="M20.124 7.25427C19.484 6.14427 15.964 0.574266 9.98397 0.754266C4.45397 0.894266 1.25397 5.75427 0.383975 7.25427C0.296206 7.40629 0.25 7.57873 0.25 7.75427C0.25 7.9298 0.296206 8.10225 0.383975 8.25427C1.01397 9.34427 4.38398 14.7543 10.274 14.7543H10.524C16.054 14.6143 19.264 9.75427 20.124 8.25427C20.2117 8.10225 20.2579 7.9298 20.2579 7.75427C20.2579 7.57873 20.2117 7.40629 20.124 7.25427V7.25427ZM10.474 12.7543C6.16397 12.8543 3.35397 9.16427 2.47397 7.75427C3.47397 6.14427 6.08397 2.85427 10.084 2.75427C14.374 2.64427 17.194 6.34427 18.084 7.75427C17.054 9.36427 14.474 12.6543 10.474 12.7543V12.7543Z" fill="#1E4076"/>
<path d="M10.2539 4.25415C9.56167 4.25415 8.88498 4.45942 8.30941 4.84401C7.73384 5.22859 7.28524 5.77522 7.02033 6.41476C6.75542 7.0543 6.68611 7.75803 6.82116 8.43697C6.95621 9.1159 7.28955 9.73954 7.77903 10.229C8.26852 10.7185 8.89216 11.0519 9.57109 11.1869C10.25 11.3219 10.9538 11.2526 11.5933 10.9877C12.2328 10.7228 12.7795 10.2742 13.1641 9.69865C13.5486 9.12307 13.7539 8.44639 13.7539 7.75415C13.7539 6.82589 13.3852 5.93565 12.7288 5.27928C12.0724 4.6229 11.1822 4.25415 10.2539 4.25415V4.25415ZM10.2539 9.25415C9.95724 9.25415 9.66723 9.16618 9.42055 9.00136C9.17388 8.83653 8.98162 8.60226 8.86809 8.32818C8.75456 8.05409 8.72485 7.75249 8.78273 7.46151C8.84061 7.17054 8.98347 6.90327 9.19325 6.69349C9.40303 6.48371 9.6703 6.34085 9.96127 6.28297C10.2522 6.22509 10.5538 6.2548 10.8279 6.36833C11.102 6.48186 11.3363 6.67412 11.5011 6.9208C11.6659 7.16747 11.7539 7.45748 11.7539 7.75415C11.7539 8.15198 11.5959 8.53351 11.3146 8.81481C11.0333 9.09612 10.6517 9.25415 10.2539 9.25415Z" fill="#1E4076"/>
</svg>
