<svg width="7" height="14" viewBox="0 0 7 14" fill="none" xmlns="http://www.w3.org/2000/svg">
<path d="M5.62565 3.50016V10.2085C5.62565 11.4977 4.58149 12.5418 3.29232 12.5418C2.00315 12.5418 0.958985 11.4977 0.958985 10.2085V2.91683C0.958985 2.11183 1.61232 1.4585 2.41732 1.4585C3.22232 1.4585 3.87565 2.11183 3.87565 2.91683V9.04183C3.87565 9.36266 3.61315 9.62516 3.29232 9.62516C2.97148 9.62516 2.70898 9.36266 2.70898 9.04183V3.50016H1.83398V9.04183C1.83398 9.84683 2.48732 10.5002 3.29232 10.5002C4.09732 10.5002 4.75065 9.84683 4.75065 9.04183V2.91683C4.75065 1.62766 3.70649 0.583496 2.41732 0.583496C1.12815 0.583496 0.0839844 1.62766 0.0839844 2.91683V10.2085C0.0839844 11.9818 1.51898 13.4168 3.29232 13.4168C5.06565 13.4168 6.50065 11.9818 6.50065 10.2085V3.50016H5.62565Z" fill="#2F80ED"/>
</svg>
