<svg width="26" height="26" viewBox="0 0 26 26" fill="none" xmlns="http://www.w3.org/2000/svg">
<path d="M3.42857 10.8571C3.42857 10.0994 3.72959 9.37266 4.26541 8.83684C4.80123 8.30102 5.52795 8 6.28571 8C7.04348 8 7.7702 8.30102 8.30602 8.83684C8.84184 9.37266 9.14286 10.0994 9.14286 10.8571C9.14286 11.6149 8.84184 12.3416 8.30602 12.8774C7.7702 13.4133 7.04348 13.7143 6.28571 13.7143C5.52795 13.7143 4.80123 13.4133 4.26541 12.8774C3.72959 12.3416 3.42857 11.6149 3.42857 10.8571ZM6.28571 9.71429C5.98261 9.71429 5.69192 9.83469 5.47759 10.049C5.26326 10.2633 5.14286 10.554 5.14286 10.8571C5.14286 11.1602 5.26326 11.4509 5.47759 11.6653C5.69192 11.8796 5.98261 12 6.28571 12C6.58882 12 6.87951 11.8796 7.09384 11.6653C7.30816 11.4509 7.42857 11.1602 7.42857 10.8571C7.42857 10.554 7.30816 10.2633 7.09384 10.049C6.87951 9.83469 6.58882 9.71429 6.28571 9.71429ZM6.28571 16C5.52795 16 4.80123 16.301 4.26541 16.8368C3.72959 17.3727 3.42857 18.0994 3.42857 18.8571C3.42857 19.6149 3.72959 20.3416 4.26541 20.8774C4.80123 21.4133 5.52795 21.7143 6.28571 21.7143C7.04348 21.7143 7.7702 21.4133 8.30602 20.8774C8.84184 20.3416 9.14286 19.6149 9.14286 18.8571C9.14286 18.0994 8.84184 17.3727 8.30602 16.8368C7.7702 16.301 7.04348 16 6.28571 16ZM5.14286 18.8571C5.14286 18.554 5.26326 18.2633 5.47759 18.049C5.69192 17.8347 5.98261 17.7143 6.28571 17.7143C6.58882 17.7143 6.87951 17.8347 7.09384 18.049C7.30816 18.2633 7.42857 18.554 7.42857 18.8571C7.42857 19.1602 7.30816 19.4509 7.09384 19.6653C6.87951 19.8796 6.58882 20 6.28571 20C5.98261 20 5.69192 19.8796 5.47759 19.6653C5.26326 19.4509 5.14286 19.1602 5.14286 18.8571ZM11.4286 10.5714C11.4286 10.3441 11.5189 10.1261 11.6796 9.96534C11.8404 9.80459 12.0584 9.71429 12.2857 9.71429H20.8571C21.0845 9.71429 21.3025 9.80459 21.4632 9.96534C21.624 10.1261 21.7143 10.3441 21.7143 10.5714C21.7143 10.7988 21.624 11.0168 21.4632 11.1775C21.3025 11.3383 21.0845 11.4286 20.8571 11.4286H12.2857C12.0584 11.4286 11.8404 11.3383 11.6796 11.1775C11.5189 11.0168 11.4286 10.7988 11.4286 10.5714ZM12.2857 17.7143C12.0584 17.7143 11.8404 17.8046 11.6796 17.9653C11.5189 18.1261 11.4286 18.3441 11.4286 18.5714C11.4286 18.7988 11.5189 19.0168 11.6796 19.1775C11.8404 19.3383 12.0584 19.4286 12.2857 19.4286H20.8571C21.0845 19.4286 21.3025 19.3383 21.4632 19.1775C21.624 19.0168 21.7143 18.7988 21.7143 18.5714C21.7143 18.3441 21.624 18.1261 21.4632 17.9653C21.3025 17.8046 21.0845 17.7143 20.8571 17.7143H12.2857ZM3.42857 4.85714C3.42857 4.62981 3.51888 4.4118 3.67962 4.25105C3.84037 4.09031 4.05839 4 4.28571 4H20.8571C21.0845 4 21.3025 4.09031 21.4632 4.25105C21.624 4.4118 21.7143 4.62981 21.7143 4.85714C21.7143 5.08447 21.624 5.30249 21.4632 5.46323C21.3025 5.62398 21.0845 5.71429 20.8571 5.71429H4.28571C4.05839 5.71429 3.84037 5.62398 3.67962 5.46323C3.51888 5.30249 3.42857 5.08447 3.42857 4.85714ZM4.28571 0C3.14907 0 2.05898 0.451529 1.25526 1.25526C0.451529 2.05898 0 3.14907 0 4.28571V20.8571C0 21.9938 0.451529 23.0839 1.25526 23.8876C2.05898 24.6913 3.14907 25.1429 4.28571 25.1429H20.8571C21.9938 25.1429 23.0839 24.6913 23.8876 23.8876C24.6913 23.0839 25.1429 21.9938 25.1429 20.8571V4.28571C25.1429 3.14907 24.6913 2.05898 23.8876 1.25526C23.0839 0.451529 21.9938 0 20.8571 0H4.28571ZM1.71429 4.28571C1.71429 3.60373 1.9852 2.94968 2.46744 2.46744C2.94968 1.9852 3.60373 1.71429 4.28571 1.71429H20.8571C21.5391 1.71429 22.1932 1.9852 22.6754 2.46744C23.1577 2.94968 23.4286 3.60373 23.4286 4.28571V20.8571C23.4286 21.5391 23.1577 22.1932 22.6754 22.6754C22.1932 23.1577 21.5391 23.4286 20.8571 23.4286H4.28571C3.60373 23.4286 2.94968 23.1577 2.46744 22.6754C1.9852 22.1932 1.71429 21.5391 1.71429 20.8571V4.28571Z" fill="#1E4076"/>
</svg>
