<svg width="26" height="27" viewBox="0 0 26 27" fill="none" xmlns="http://www.w3.org/2000/svg">
<path d="M6.56533 1.57718C6.90133 1.42518 7.27333 1.33984 7.66667 1.33984H18.3333C19.0406 1.33984 19.7189 1.6208 20.219 2.12089C20.719 2.62099 21 3.29927 21 4.00651V16.0065M21 21.3398V22.6732C21 23.3804 20.719 24.0587 20.219 24.5588C19.7189 25.0589 19.0406 25.3398 18.3333 25.3398H7.66667C6.95942 25.3398 6.28115 25.0589 5.78105 24.5588C5.28095 24.0587 5 23.3804 5 22.6732V5.33984M11.6667 3.83984H14.3333M13 20.0065V20.0198M1 1.33984L25 25.3398" stroke="#1E4076" stroke-width="2" stroke-linecap="round" stroke-linejoin="round"/>
</svg>
