<svg width="22" height="22" viewBox="0 0 22 22" fill="none" xmlns="http://www.w3.org/2000/svg">
<path d="M5.33333 2.66667C5.33333 3.37391 5.05238 4.05219 4.55229 4.55229C4.05219 5.05238 3.37391 5.33333 2.66667 5.33333C1.95942 5.33333 1.28115 5.05238 0.781049 4.55229C0.280951 4.05219 0 3.37391 0 2.66667C0 1.95942 0.280951 1.28115 0.781049 0.781049C1.28115 0.280951 1.95942 0 2.66667 0C3.37391 0 4.05219 0.280951 4.55229 0.781049C5.05238 1.28115 5.33333 1.95942 5.33333 2.66667ZM5.33333 10.6667C5.33333 11.3739 5.05238 12.0522 4.55229 12.5523C4.05219 13.0524 3.37391 13.3333 2.66667 13.3333C1.95942 13.3333 1.28115 13.0524 0.781049 12.5523C0.280951 12.0522 0 11.3739 0 10.6667C0 9.95942 0.280951 9.28115 0.781049 8.78105C1.28115 8.28095 1.95942 8 2.66667 8C3.37391 8 4.05219 8.28095 4.55229 8.78105C5.05238 9.28115 5.33333 9.95942 5.33333 10.6667ZM2.66667 21.3333C3.37391 21.3333 4.05219 21.0524 4.55229 20.5523C5.05238 20.0522 5.33333 19.3739 5.33333 18.6667C5.33333 17.9594 5.05238 17.2811 4.55229 16.7811C4.05219 16.281 3.37391 16 2.66667 16C1.95942 16 1.28115 16.281 0.781049 16.7811C0.280951 17.2811 0 17.9594 0 18.6667C0 19.3739 0.280951 20.0522 0.781049 20.5523C1.28115 21.0524 1.95942 21.3333 2.66667 21.3333ZM13.3333 2.66667C13.3333 3.37391 13.0524 4.05219 12.5523 4.55229C12.0522 5.05238 11.3739 5.33333 10.6667 5.33333C9.95942 5.33333 9.28115 5.05238 8.78105 4.55229C8.28095 4.05219 8 3.37391 8 2.66667C8 1.95942 8.28095 1.28115 8.78105 0.781049C9.28115 0.280951 9.95942 0 10.6667 0C11.3739 0 12.0522 0.280951 12.5523 0.781049C13.0524 1.28115 13.3333 1.95942 13.3333 2.66667ZM10.6667 13.3333C11.3739 13.3333 12.0522 13.0524 12.5523 12.5523C13.0524 12.0522 13.3333 11.3739 13.3333 10.6667C13.3333 9.95942 13.0524 9.28115 12.5523 8.78105C12.0522 8.28095 11.3739 8 10.6667 8C9.95942 8 9.28115 8.28095 8.78105 8.78105C8.28095 9.28115 8 9.95942 8 10.6667C8 11.3739 8.28095 12.0522 8.78105 12.5523C9.28115 13.0524 9.95942 13.3333 10.6667 13.3333ZM13.3333 18.6667C13.3333 19.3739 13.0524 20.0522 12.5523 20.5523C12.0522 21.0524 11.3739 21.3333 10.6667 21.3333C9.95942 21.3333 9.28115 21.0524 8.78105 20.5523C8.28095 20.0522 8 19.3739 8 18.6667C8 17.9594 8.28095 17.2811 8.78105 16.7811C9.28115 16.281 9.95942 16 10.6667 16C11.3739 16 12.0522 16.281 12.5523 16.7811C13.0524 17.2811 13.3333 17.9594 13.3333 18.6667ZM18.6667 5.33333C19.3739 5.33333 20.0522 5.05238 20.5523 4.55229C21.0524 4.05219 21.3333 3.37391 21.3333 2.66667C21.3333 1.95942 21.0524 1.28115 20.5523 0.781049C20.0522 0.280951 19.3739 0 18.6667 0C17.9594 0 17.2811 0.280951 16.7811 0.781049C16.281 1.28115 16 1.95942 16 2.66667C16 3.37391 16.281 4.05219 16.7811 4.55229C17.2811 5.05238 17.9594 5.33333 18.6667 5.33333ZM21.3333 10.6667C21.3333 11.3739 21.0524 12.0522 20.5523 12.5523C20.0522 13.0524 19.3739 13.3333 18.6667 13.3333C17.9594 13.3333 17.2811 13.0524 16.7811 12.5523C16.281 12.0522 16 11.3739 16 10.6667C16 9.95942 16.281 9.28115 16.7811 8.78105C17.2811 8.28095 17.9594 8 18.6667 8C19.3739 8 20.0522 8.28095 20.5523 8.78105C21.0524 9.28115 21.3333 9.95942 21.3333 10.6667ZM18.6667 21.3333C19.3739 21.3333 20.0522 21.0524 20.5523 20.5523C21.0524 20.0522 21.3333 19.3739 21.3333 18.6667C21.3333 17.9594 21.0524 17.2811 20.5523 16.7811C20.0522 16.281 19.3739 16 18.6667 16C17.9594 16 17.2811 16.281 16.7811 16.7811C16.281 17.2811 16 17.9594 16 18.6667C16 19.3739 16.281 20.0522 16.7811 20.5523C17.2811 21.0524 17.9594 21.3333 18.6667 21.3333Z" fill="#1E4076"/>
</svg>
